<?xml version="1.0" encoding="utf-8"?>
<!-- Generator: Adobe Illustrator 27.0.0, SVG Export Plug-In . SVG Version: 6.00 Build 0)  -->
<svg version="1.1" id="Layer_2" xmlns="http://www.w3.org/2000/svg" xmlns:xlink="http://www.w3.org/1999/xlink" x="0px" y="0px"
	 viewBox="0 0 882.63 1063.29" style="enable-background:new 0 0 882.63 1063.29;" xml:space="preserve">
<style type="text/css">
	.st0{fill:#FCCDAC;}
	.st1{fill:#AA927D;}
	.st2{fill:#FFD2B3;}
	.st3{fill:#5587A5;}
	.st4{fill:#FFE3C6;}
	.st5{fill:none;}
	.st6{fill:#F9E9A7;}
	.st7{fill:#FAF0BE;}
	.st8{fill:none;stroke:#FAF0BE;stroke-miterlimit:10;}
	.st9{fill:#2F2F42;}
	.st10{fill:#F4F4F4;}
	.st11{fill:#FFFFFF;stroke:#000000;stroke-miterlimit:10;}
	.st12{fill:#E8B689;stroke:#000000;stroke-miterlimit:10;}
	.st13{fill:none;stroke:#000000;stroke-miterlimit:10;}
	.st14{stroke:#000000;stroke-miterlimit:10;}
	.st15{fill:#FFFBF8;stroke:#000000;stroke-miterlimit:10;}
	.st16{fill:#D3AF97;}
</style>
<path class="st0" d="M700.23,695.96c26.71-67.66,108.31-108.04,128.51-92.52c7.12,5.47,6.42,21.15,5.01,52.5
	c-1.11,24.94-4.55,32.66-6.6,59c-1.97,25.39,0.14,32.13-0.4,53.38c-0.73,28.79-5.26,41.55-13.84,84.22
	c-16.72,83.12-12.09,97.02-29.5,139.67c-19.23,47.1-34.07,52.67-39.69,54.15c-14.65,3.86-24.2-4.92-58.92-2.44
	c-7.85,0.56-9.03,1.13-24.52,2.44c-27.42,2.33-41.17,3.43-43.1,0c-4.44-7.9,29.36-25.42,52.19-55.82
	c28.08-37.4,28.86-82.64,29.26-171.61C699.04,731.6,688.39,725.93,700.23,695.96z"/>
<path class="st0" d="M259.85,661.52c2.53-1,8.27,18.06,28.62,27.29c13.95,6.33,22.73,2.45,27.82,9.8
	c5.72,8.25-2.79,15.46-1.85,36.04c0.7,15.45,5.73,16.45,7.68,34.98c1.69,16.01-1.76,18.16-1.32,33.65
	c0.49,17.39,6.75,33.84,11.92,49.02c3.75,10.99,7.4,19.64,3.65,28.86c-0.59,1.45-3.83,9.41-8.96,10.48
	c-16.35,3.42-43.71-64.98-56.31-96.51c-20.6-51.5-4.78-28.56-28.21-103.14c-2.73-8.69-8.71-27.36-1.59-32.86
	C246.11,655.42,254.82,659.3,259.85,661.52c59.41,26.24,60.86,21.92,70.75,29.68c52.62,41.3,30.89,178.99,5.56,182.31
	C303.83,877.74,251.49,664.83,259.85,661.52z"/>
<path class="st1" d="M459.41,375.23c-2.75-2.28-12.48,2.35-17.52,9.35c-3.46,4.79-1.93,6.82-5.51,10.01
	c-1.79,1.59-3.23,2.03-16.19,6.17c-4.04,1.29-6.07,1.95-6.84,2.5c-5.23,3.76-3.74,8.88-8.18,11.68c-3.67,2.31-5.58-0.61-11.35,1.34
	c-5.31,1.79-4.74,4.62-11.01,8.18c-4.25,2.41-8.16,3.17-15.02,4.51c-6.89,1.34-6.56,0.45-9.68,1.5c-7.73,2.6-7.9,7.43-15.02,11.18
	c-7.49,3.94-9.48-0.25-17.52,3.5c-6.63,3.09-6.6,6.56-15.35,12.85c-4.82,3.47-6.79,3.82-13.02,7.18
	c-13.57,7.31-12.58,10.14-33.21,24.53c-6.5,4.53-10.11,6.7-14.02,11.85c-3.54,4.65-4.7,8.38-7.01,13.85
	c-5.25,12.45-9.79,18.44-12.48,23.62c-8.03,15.5-5.15,34.75,0.16,70.19c6.04,40.32,12.87,48.39,15.54,51.28
	c11.47,12.38,28.06,17.46,30.79,18.27c18.64,5.55,29.56,0.63,39.58,10.15c5.89,5.6,7.78,12.67,8.46,15.22
	c3.11,11.65-1.78,18.11-2.71,34.17c-0.41,7.05,0.36,8.77,1.69,23.01c3.48,37.18-0.56,38.32,3.04,65.97
	c1.46,11.15,3.14,18.81,3.72,33.49c0.37,9.3,0.78,14.06,0,19.96c-1.05,8.01-3.19,13.33-12.79,32.27
	c-18.19,35.89-20.71,41.22-21.07,50.65c-0.27,6.84,0.85,9.44-0.48,16.96c-1.99,11.22-7.19,18.3-12.33,27.37
	c-13.29,23.46-24.1,31.59-20.28,38.35c3.96,7.03,22.38-0.05,61.67-1.96c15.97-0.77,30.89-0.05,60.73,1.4
	c28.63,1.39,49.24,3.42,57.93,4.2c89.6,8.14,134.63,12.71,180.34-7.48c20.41-9.02,57.18-25.25,72.09-61.31
	c14-33.84,7.57-82.23,7.14-85.12c-0.39-2.62-3.23-22.34-3.48-46.12c-0.35-32.74,5.99-33.91,7.26-62.95
	c2-45.58-14.23-66.93-0.69-79.56c4.51-4.2,6.84-2.33,23.52-7.61c30.51-9.65,75.08,0.56,91.4-4.8c6.87-2.26,12.22-8.4,15.41-12.07
	c7.14-8.2,24.78-27.3,26.35-32.59c1.82-6.14-2.98-11.36-6.57-18.68c-1.81-3.69-5.13-14.57-11.76-36.32
	c-7.77-25.46-7.14-26.82-13.14-44.97c-5.16-15.59-7.81-23.53-11.76-30.09c-5.45-9.06-7.92-9.48-26.63-29.4
	c-19.02-20.25-19.38-22.92-28.36-29.06c-12.08-8.25-12.95-4.45-26.63-13.49c-17.65-11.67-17.22-18.66-30.78-23.18
	c-9.71-3.23-14.31-1.11-21.45-6.57c-7.24-5.54-4.95-9.61-12.11-14.53c-8.74-6-16.2-2.74-21.45-9.69c-2.76-3.65-0.56-4.63-3.46-8.3
	c-2.93-3.7-8.54-5.92-19.75-10.34c-0.44-0.18-1.06-0.42-1.84-0.71c-3.75-1.42-6.85-2.38-7.24-2.48
	c-4.95-1.27-16.59,23.53-21.33,31.87c-13.68,24.08-39.56,33.35-53.61,38.74c-12.94,4.97-43.87,16.83-69.87,1.38
	c-2.42-1.44-23.48-14.34-25.25-34.59C448.93,392.1,463.31,378.47,459.41,375.23z"/>
<path class="st2" d="M534.77,326.77c-4.19,2.52-8.69,4.38-13.54,5.33c-31.44,6.21-70.18-25.9-73.29-20.61
	c-0.47,0.81,0.44,1.53,1.76,6.32c1.17,4.23,1.45,8.08,2.02,15.79c0.65,8.84,0.6,16.08,0.49,18.4c-0.01,0.29-0.07,1.53-0.09,3.22
	c-0.01,0.89,0,1.99,0.07,3.72c0.38,9.75,1.4,16.32-0.33,22.9c-1.7,6.47-3.7,7.82-5.24,12.11c-6.03,16.91,9.64,38.75,19.96,49.08
	c5.02,5.03,14.37,14.38,29.45,18c14.15,3.39,26.44,0.06,38.73-4.99V326.77z"/>
<path class="st0" d="M624.47,376c-1.42-2.44-3.79-1.48-10.35-4.95c-12.33-6.52-18.03-17.34-19.32-19.79
	c-1.83-3.48-3.76-8.41-4.49-27.05c-0.49-12.65,0.02-25.33,0.65-37.98c1.86-36.99,1.28-38.61,0.13-39.13
	c-4.32-1.95-17.82,10.72-59.66,79.27c0,43.66,0,87.31,0,130.97c2.41-0.92,5.86-2.3,9.9-4.15c11.94-5.47,27.03-14.12,48.63-33.66
	C606.34,404.72,629.19,384.12,624.47,376z"/>
<path class="st3" d="M406.24,107.53"/>
<path class="st3" d="M419.23,97.98"/>
<path class="st3" d="M426.49,88.8"/>
<path class="st3" d="M491.46,60.52"/>
<path class="st3" d="M451.34,102.56"/>
<path class="st2" d="M534.8,85.97c-4.45,1.03-9.37,1.92-14.74,2.51c-10.21,1.13-19.23,0.89-26.57,0.17
	c-6.77-1.19-13.53-2.39-20.3-3.58c-5.17-1.38-11.83-2.67-19.64-3.02c-7.53-0.33-14.06,0.32-19.22,1.18
	c-0.77,0.21-1.67,0.5-2.69,0.51c-0.52,0-1.03,0.05-1.55,0.08c-0.37,0.09-0.73,0.19-1.09,0.33c0.08-0.03,0.16-0.07,0.24-0.1
	c-0.11,0.04-0.22,0.06-0.33,0.09c-3.99,2.37-7.98,4.75-11.97,7.12c-2.05,2.72-4.17,5.95-6.12,9.72c-4.66,8.98-6.52,17.43-7.29,23.62
	c-0.67,3.85-1.34,7.71-2.01,11.56c0.03,4.78,0.05,9.58,0.06,14.38c0.01,4.61,0.02,9.2,0.02,13.78c-1.25,7.64-2.43,15.44-3.53,23.38
	c-0.64,4.62-1.25,9.2-1.82,13.74c-0.33-0.24-1.28-0.89-2.65-0.91c-1.21-0.02-2.13,0.46-2.54,0.73c-1.68,1.12-2.39,3.77-1.63,6.56
	c1.15,6.11,2.29,12.23,3.44,18.34c1.48,6.19,2.96,12.38,4.43,18.57c0.8,2.56,1.6,5.12,2.41,7.68c1.38,3.7,2.99,6.65,4.35,8.82
	c2.11,3.36,3.07,4.84,4.52,6.09c1.08,0.93,2.1,1.56,2.82,1.95c0.6,0.26,2.63,1.05,5.03,0.32c3.45-1.04,4.68-4.32,4.81-4.7l7.55,22.8
	c1.13,4.64,2.95,10.34,5.97,16.5c3.7,7.54,8,13.32,11.57,17.42c0.13,0.15,0.54,0.62,0.98,1.12c3.46,3.93,5.97,6.63,7.23,8.01
	c5.42,5.9,4.45,5.47,7.77,8.87c3.05,3.12,5.96,6.07,10.48,8.8c2.92,1.77,5.56,2.87,7.45,3.55c2.44,0.61,4.89,1.22,7.33,1.83
	c3.83,0.8,8.25,1.43,13.18,1.6c10.78,0.39,19.81-1.53,26.25-3.51c2.46-1.15,5.07-2.48,7.79-3.99V85.97z"/>
<path class="st0" d="M628.7,204.43c-0.22-7.61-2.25-13.2-3.83-16.59c-1.99-4.28-3.51-7.42-6.78-8.45
	c-5.86-1.86-12.18,4.68-12.48,5.01c-0.89-0.36-2.21-0.72-3.52-0.29c-3.12,1.02-3.92,5.74-4.13,6.94c-0.68,3.99,0.67,6.13-0.53,6.93
	c-1.12,0.74-3.63-0.25-4.81-1.86c-0.9-1.22-0.67-2.31-0.84-6.73c-0.07-1.8-0.17-3.26-0.24-4.18c-0.32-7.19-1.26-15.59-3.4-24.81
	c-3.3-14.25-8.39-25.87-13.05-34.51c-2.06-8.11-4.11-16.22-6.17-24.33c-0.94-2.47-3.97-9.42-11.71-14.31
	c-9.89-6.25-20.19-4.55-22.39-4.13c-1.07,0.28-2.22,0.55-3.36,0.82c-0.01,27.35-0.03,112.14-0.03,139.5
	c0,22.91,0.02,103.56,0.03,126.48c1.72-0.95,4-2.24,6.6-3.88c5.63-3.55,10.44-7.17,14.48-10.54c4.55-3.64,9.7-8.31,14.85-14.17
	c4.54-5.17,8.12-10.16,10.92-14.6c2.89-5.65,5.86-12.58,8.2-20.7c1.53-5.29,2.54-10.24,3.21-14.71c0.3-2.61,1.07-9.18,2.17-16.2
	c0.22-1.43,0.62-3.76,2.41-4.66c1.18-0.59,2.51-0.35,3.33-0.11c1.7,0.68,4.21,1.47,7.34,1.74c2.99,0.26,5.49-0.05,7.25-0.4
	c1.76-1.1,3.52-2.2,5.28-3.3c2.33-2.68,5.36-6.8,7.57-12.4c1.48-3.75,2.21-7.17,2.58-9.9c0.58-3.92,1.01-8.27,1.14-13
	C628.89,210,628.84,207.13,628.7,204.43z"/>
<path class="st4" d="M622.79,182.97"/>
<path class="st5" d="M628.23,207.22"/>
<path class="st5" d="M456.67,78.38"/>
<path class="st5" d="M455.97,86.19"/>
<path class="st4" d="M462.23,373.62"/>
<path class="st4" d="M463.55,364.21"/>
<path class="st6" d="M484.82,23.1c4.63-0.09,14.27,0.02,26.13,2.72c2.3,0.52,3.99,1.03,5.02,1.33c0,0,1.49,0.43,2.97,0.9
	c9.8,3.13,28.32,12.7,28.32,12.7c18.23,9.42,17.17,5.05,27.16,11.86c6.33,4.31,11.65,9.38,20.59,17.9
	c6.57,6.26,9.85,9.39,11.23,11.23c7.78,10.41,8.54,21.85,9.57,41.14c0.85,15.92-0.81,14.47,0,32.24c0.74,16.23,3.11,24.17,0,25.79
	c-1.58,0.82-3.25-0.68-5.95,0.68c-1.81,0.91-2.8,2.46-3.41,3.55c-4.36,7.81-4.86,20.15-7.45,20.68c-1.87,0.38-4.79-5.44-6.4-9.69
	c-4.97-13.19-4.29-29.68-4.94-33.34c-0.03-0.18-0.26-1.46-0.51-3.25c-0.08-0.55-0.25-0.88-0.18-1.37c0.24-1.73-0.32-3.59-0.66-4.75
	c-0.01-0.05-0.04-0.13-0.07-0.24c-0.02-0.07-0.03-0.13-0.04-0.13c-0.45-1.69-1.73-3.71-1.73-3.71c-0.53-0.84-1.21-2.1-1.85-3.91
	c-0.52-1.33-1.07-2.68-1.63-4.04c-1.35-3.25-2.75-6.36-4.17-9.33c-2.43-4.83-3.77-6.6-4.55-7.24c-0.19-0.16-0.97-0.82-1.52-1.93
	c-0.14-0.27-0.22-0.58-0.31-1.06c-0.88-4.73-0.15-15.9-1.15-17.41c-0.59-0.89-1.12-1.47-1.82-2.2c-1.23-1.29-6.66-6.75-15.13-8.52
	c-4.81-1.01-12.24,0.48-27.15,3.05c-12.79,2.21-13.32,3.03-17.99,3.05c-10.09,0.05-12.75-4.01-24.44-7.47
	c-2.92-0.86-18.03-5.14-35.97-2.04c-8.46,1.46-16.41,2.84-23.76,9.16c-10.29,8.86-12.62,21.59-13.58,26.81
	c-0.64,3.5-0.65,10.37-0.68,24.1c-0.01,4.26,0.02,17.19-5.09,23.76c-0.85,1.09-2.46,1.53-3.73,3.39c-2.2,3.22-1.84,6.63-1.8,10.77
	c0.01,1.42,0.09,14.65-1.93,15.1c-1.73,0.39-5.58-8.54-8.12-17.11c-1.13-3.83-4.75-16.85-4.42-37.24c0.15-9.32,1.06-16.31,2.4-26.59
	c0.93-7.11,1.82-14,3.83-22.88c2.86-12.65,4.5-19.86,9.1-28.63c1.95-3.71,7.88-14.26,19.52-24.07c9.54-8.05,18.33-11.72,26.22-14.95
	C464.84,23.72,481.41,23.17,484.82,23.1z"/>
<path class="st7" d="M473.86,195.81"/>
<path class="st7" d="M498.17,42.05"/>
<path class="st7" d="M551.7,51.36"/>
<path class="st8" d="M455.26,167.62"/>
<path class="st8" d="M437.39,167.19"/>
<path class="st9" d="M405.74,172.68c12.29-4.05,30.25-4.78,30.25-4.78c7.36-0.3,20.75-0.84,33.2,1.27
	c5.25,0.89,7.91,1.06,13.22,1.41c5.71,0.37,8.34,0.24,10.97-0.28c4.55-0.9,7.64-2.65,9.29-3.52c8.23-4.37,16.21-6.03,26.73-8.3
	c8.66-1.87,15.34-2.3,20.85-2.63c17.86-1.08,35,0.8,35,0.8c0.93,0.93,2.41,2.22,4.5,3.24c3.64,1.77,5.32,0.86,9.74,2.46
	c1.77,0.64,4.51,1.62,6.95,4.05c2.32,2.3,1.38,2.94,4.35,6.57c2.29,2.8,3.88,3.68,4.16,6.02c0.06,0.48,0.21,1.89-0.59,3.27
	c-0.61,1.05-1.56,1.72-2.13,1.96c-2.41,1-5.35-2.61-11.8-7.44c-3.18-2.39-7.48-5.39-12.94-6.19c-1.81-0.26-2.95-0.18-3.94,0.42
	c-1.94,1.19-2.34,3.84-2.67,7.74c-0.51,5.97-0.5,10.53-0.5,11.4c-0.01,2.02-0.04,12.35-5.83,19.83c-3.35,4.32-7.37,6.08-13.08,8.58
	c-2.7,1.18-10.89,4.48-22.09,4.36c-5.56-0.06-10.56-0.12-16.18-2.67c-10.2-4.65-15.51-14.4-17.16-17.45
	c-1.59-2.93-7.94-15.38-11.96-19.27c-0.99-0.96-2.14-1.69-3.51-1.98c-2-0.42-3.73,0.27-4.36,0.57c-0.31,0.14-1.55,0.75-2.67,2.11
	c-3.19,3.85-4.95,13.2-5.06,13.79c-0.59,3.08-2.01,10.48-7.03,17.16c-1.63,2.17-4.57,5.5-9.41,8.44c-7.47,4.57-14.1,6.85-18.61,8.05
	c-6.94,1.86-11.08,1.76-13.06,1.63c-2.18-0.15-5.22-0.37-8.73-1.8c-6.51-2.65-10.08-7.56-11.4-9.43
	c-4.46-6.32-5.52-13.21-6.19-17.59c-1.18-7.7-0.14-11.99-3.24-14.07c-2.52-1.7-4.87,0.03-7.32-2.11c-2.27-1.99-3.12-6-1.69-8.58
	c0.61-1.1,1.48-1.68,5.91-3.66C401.9,174.19,403.98,173.26,405.74,172.68z"/>
<path class="st8" d="M463.42,230.36"/>
<path class="st8" d="M421.69,198.53"/>
<path class="st2" d="M425.39,174.53c5.27-0.88,9.14-1.52,15.05-1.84c8.83-0.47,14.77,0.18,16.89,0.44
	c7.18,0.89,10.81,1.38,13.24,4.07c2.6,2.89,2.62,6.56,2.65,11.21c0.02,3.4-0.08,13.85-7.47,23.66c-1.73,2.3-5.26,6.42-10.95,9.71
	c-4.02,2.33-7.51,3.32-9.45,3.85c-3.03,0.83-7.51,2.07-13.07,1.54c-2.77-0.26-10.1-0.96-15.81-6.53c-4.58-4.46-5.7-9.7-7.23-16.82
	c-1.74-8.14-0.86-13.79-0.56-15.47c0.72-4.05,1.29-7.2,3.83-9.75C413.85,177.26,415.67,176.15,425.39,174.53z"/>
<path class="st2" d="M534.8,162.72c-7.95,1.15-12.99,2.75-14.87,3.38c-5.1,1.72-7.95,3.29-10.35,5.1c-2.52,1.9-4.93,3.71-5.84,6.78
	c-0.51,1.7-0.52,3.65,1.75,9.65c2.26,5.97,3.48,9.2,6.35,13.31c2.66,3.81,6.19,8.86,12.76,12.21c3.5,1.79,6.86,2.57,10.2,2.9V162.72
	z"/>
<path class="st0" d="M574.48,173.99c-1.45-3.73-2.73-7.02-6.22-9.49c-0.17-0.12-0.38-0.26-0.62-0.41c-2.97-1.79-7.06-2.79-16.75-2.7
	c-7.86,0.07-13.28,0.76-17.28,1.47c-0.86,0.15-1.57,0.29-2.07,0.39c-0.04,17.44-0.08,34.87-0.11,52.31
	c0.91,0.17,2.17,0.39,3.68,0.57c0.76,0.09,5.09,0.58,9.7,0.23c2.77-0.21,9.29-0.71,16.43-4.47c4.02-2.12,8.81-4.78,12.15-10.34
	c2.75-4.58,2.83-8.65,2.96-14.61C576.42,183.33,576.47,179.11,574.48,173.99z"/>
<path class="st10" d="M512.47,189.25c0.28-4.89,4.09-9.73,4.09-9.73c1.64-2.08,5.03-6.29,11.22-9.24c1.94-0.93,7.23-3.37,14.23-2.92
	c5.72,0.37,9.96,2.5,13.59,4.32c2.41,1.21,4.01,2.29,5.23,3.12c4.05,2.76,6.08,4.14,6.49,5.86c0.95,3.95-4.7,8.4-7.64,10.72
	c-0.82,0.65-4.57,3.54-10.44,5.54c-5.81,1.98-11.71,2.43-15.44,1.9c-1-0.14-3.92-0.67-7.39-1.5c-0.43-0.1-0.85-0.21-1.33-0.34
	c-1.39-0.37-3.59-1.23-8-2.96c-1.78-0.7-3.81-1.52-4.43-3.35C512.44,190.07,512.45,189.56,512.47,189.25z"/>
<path class="st8" d="M542.48,199.88"/>
<path class="st10" d="M469.38,192.32c-1.36-4.7-6.14-8.58-6.14-8.58c-2.06-1.67-6.3-5.02-12.99-6.53c-2.1-0.47-7.8-1.68-14.52,0.31
	c-5.49,1.63-9.16,4.64-12.29,7.23c-2.08,1.71-3.41,3.13-4.41,4.21c-3.34,3.59,1.42,14.3,4.8,15.91c0.94,0.45,5.24,2.43,11.41,3.09
	c6.1,0.64,11.95-0.23,15.48-1.58c0.95-0.36,3.68-1.52,6.87-3.1c0.39-0.19,0.79-0.4,1.22-0.62c1.27-0.67,3.23-2,7.14-4.66
	c1.58-1.07,3.38-2.33,3.57-4.25C469.59,193.12,469.47,192.62,469.38,192.32z"/>
<path class="st9" d="M546.6,198.43"/>
<path class="st9" d="M551.73,205.82"/>
<path class="st7" d="M608.65,199.61"/>
<circle class="st3" cx="537.68" cy="184.38" r="9.19"/>
<circle class="st3" cx="445.06" cy="193.57" r="9.19"/>
<path class="st4" d="M496.78,213.18c-2.08-0.08-4.16-0.17-6.24-0.25"/>
<path class="st4" d="M493.52,232.36"/>
<path class="st9" d="M490.54,231.33"/>
<path class="st5" d="M452.22,340.01"/>
<path class="st4" d="M456.44,345.96"/>
<path class="st4" d="M500.78,357.97"/>
<path class="st11" d="M438.67,344.54"/>
<path class="st11" d="M411.8,276.18"/>
<path class="st12" d="M598.42,118.71"/>
<path class="st7" d="M581.89,119.33"/>
<path class="st4" d="M265.49,685.3"/>
<path class="st1" d="M264.35,680.6"/>
<path class="st5" d="M176.57,692.52"/>
<path class="st5" d="M193.17,659.79"/>
<path class="st2" d="M321.24,883.96c0.01-0.91,0.02-1.81,0.03-2.7c-36.36-50.59-49.19-87.81-54.19-106.11
	c-2.64-9.66-7.2-28.98-11.2-49.35c-1.97-10.04-3.81-20-5.56-31.09c-1.81-11.55-2.32-16.62-3.57-25.73
	c-5.4-39.42-8.36-35.87-9.52-55.38c-1.42-23.97,2.83-33.13-4.28-43.98c-2.42-3.7-6.43-7.99-6.92-15c-0.42-6.05,1.58-10.23-0.32-15.7
	c-0.7-2.02-1.77-3.59-3.65-6.88c-0.77-1.34-1.39-2.29-1.95-3.08c-1.45-2.02-2.16-2.71-2.95-3.77c-1.99-2.69-1.17-3.7-2.85-7.05
	c-1.63-3.24-2.55-2.61-5.51-7.17c-0.53-0.81-1.45-2.48-3.29-5.8c-1.78-3.22-2.25-4.18-3.45-5.71c-1.17-1.48-2.27-2.53-3.32-3.53
	c-2.05-1.95-3.19-2.69-4.15-3.53c-2.97-2.59-2.56-4.67-5.1-9.05c-3.24-5.61-5.35-4.37-8.31-9.86c-2.8-5.19-2.07-7.5-4.31-8.62
	c-3.14-1.56-8.58,1.14-11.15,5.07c-2.72,4.15-1.69,8.91-0.51,14.44c1.73,8.07,5.42,14.21,8.07,18.62c2.35,3.92,3.58,5.23,6.18,10.1
	c2.74,5.16,2.04,4.95,4.31,8.79c1.81,3.05,2.9,6.48,4.77,9.49c0.24,0.38,0.93,1.47,0.67,2.7c-0.03,0.13-0.3,1.33-1.19,1.74
	c-0.55,0.25-1.26,0.18-5.4-2.51c-1.69-1.09-2.61-1.75-4.72-3.07c-0.7-0.44-1.15-0.7-1.42-0.88c-1.47-0.95-2.79-1.97-7.71-5.45
	c-6.09-4.29-9.16-6.39-9.83-6.85c-4.95-3.44-4.89-3.38-5.38-3.8c-1.3-1.12-6.91-6.02-12.92-13.94c-4.86-6.4-4.27-6.99-10.14-15.71
	c-2.18-3.24-2.34-3.3-12.12-16.59c-9.77-13.26-9.94-13.65-12.2-16.35c-1.52-1.82-7.11-8.4-15.71-15.46
	c-8.75-7.17-11.64-7.47-13.71-6.9c-3.11,0.85-5.54,3.97-6.09,7.03c-0.6,3.31,1.12,5.94,5.11,11.78c4.93,7.22,7.4,10.83,9.41,13.55
	c3.37,4.55,8.02,10.83,12.77,18.48c6.58,10.6,5.25,10.68,9.61,16.25c2.47,3.16,5.04,5.88,7.47,10.98c2.14,4.5,2.56,7.46,1.79,10.16
	c-0.26,0.93-0.97,3.41-3.11,4.5c-2.8,1.44-6.24-0.44-7.96-1.37c-3.17-1.73-4.26-3.58-9.39-9.44c0,0-2.19-2.5-5.44-5.98
	c-2.08-2.24-6.38-6.85-11.31-11.2c-5.87-5.18-5.91-4.06-11.19-8.68c-3.02-2.64-3.5-3.32-12.92-13.43
	c-6.75-7.24-8.41-9.06-11.91-10.39c-1.97-0.75-7.9-3-12.42,0.25c-3.16,2.27-4.62,6.51-4.14,10.08c0.47,3.43,2.55,4.91,10.22,11.97
	c3.35,3.09,8.63,7.96,13.43,12.92c4.92,5.1,8.63,9.55,10.14,11.4c6.33,7.75,6.31,9.05,11.11,13.99c1.7,1.75,4.92,5.06,9.72,8.68
	c4.19,3.15,8.79,6.48,8.79,6.48c4.02,2.91,5.77,4.11,6.62,6.59c0.1,0.28,1.41,4.25-0.64,6.23c-2.13,2.06-6.32,0.47-6.86,0.25
	c-3.04-1.2-3.26-3.04-7.91-6.75c-0.79-0.63-1.94-1.42-4.23-2.97c-4.79-3.25-8.52-5.59-9.66-6.31c-5.48-3.45-9.71-6.12-14.28-9.45
	c-5.25-3.82-9.8-7.68-12.79-10.2c-5.89-4.99-7.88-7.07-12.23-8.81c-3.26-1.3-7.11-2.83-10.45-1c-3.67,2.01-5.07,7.18-4.33,11.08
	c0.55,2.89,2.25,4.99,8.64,10.21c6.53,5.34,9.11,6.71,13.94,10.39c5.4,4.12,3.99,3.78,16.41,14.6c9.16,7.97,11.57,9.59,12.98,10.49
	c8.43,5.4,10.62,6.51,10.62,6.51c2.46,1.25,5.22,2.48,7.86,5.41c2.5,2.78,2.66,4.61,2.69,5.11c0.18,3.33-2.52,5.67-2.97,6.04
	c-2.16,1.81-4.67,1.96-6.51,2.07c-1.48,0.09-2.66-0.08-4.86-0.38c-2.22-0.31-3.89-0.7-4.49-0.85c-7.5-1.79-12.04-3.09-12.04-3.09
	c-8.13-2.32-12.19-3.49-14.28-4.17c-1.89-0.62-2.66-0.91-12.27-4.22c-6.39-2.2-9.64-3.29-12.03-2.41c-2.81,1.03-5.53,3.84-5.67,7.01
	c-0.11,2.56,1.48,4.44,3.26,6.54c0.71,0.84,2.83,3.21,8.21,6.09c2.69,1.44,5.23,2.39,10.21,4.23c5.71,2.11,5.57,1.84,10.21,3.62
	c4.75,1.83,9.47,3.85,9.47,3.85c3.38,1.45,3.73,1.68,5.41,2.26c3.25,1.13,5.98,1.67,8.24,2.1c4.24,0.82,4.23,0.47,7.08,1.22
	c3.01,0.79,5.09,1.72,6.65,2.43c2.81,1.27,3.78,2.05,4.17,2.37c1.63,1.36,2.45,2.76,2.91,3.48c1.73,2.71,3.88,4.38,8.18,7.72
	c4.44,3.46,8.26,5.08,10.6,6.21c10.52,5.08,9.45,9.05,20.75,16.21c6,3.8,15.41,9.76,26.3,12.4c1.95,0.47,6.08,1.36,8.83,4.82
	c1.95,2.45,2.08,4.77,3.03,8.68c1.51,6.21,3.25,8.88,4.97,13.31c3.15,8.13,8.23,27.45,12.66,53.31c2.94,17.18,5.59,32.61,6.66,53.31
	c0.47,9.06,0.69,19.99,2.07,37.78c0.32,4.19,0.96,11.92,2.12,21.78c0.8,6.82,1.42,12.07,2.48,18.14c1.63,9.3,3.48,15.76,6.51,26.24
	c4.81,16.62,9.25,28.87,12.8,38.61c4.25,11.67,6.38,17.5,8.78,22.24c5.13,10.15,10.72,20.9,22.37,28.96
	c4.44,3.07,10.47,7.13,19.3,7.9c9.99,0.86,17.44-3.02,22.16-5.48c4.36-2.27,7.92-4.2,9.43-8.12c1.76-4.58-1.3-6.62-1.03-11.76
	c0.57-10.73,14.5-12.26,17.05-24.66c1.21-5.9-1.9-5.77-1.1-14.26c0.53-5.6,2.17-8.69,7.9-21.5c1.6-3.57,4.06-9.11,7.05-16.05
	C326.71,891.5,321.17,891.47,321.24,883.96z"/>
<path class="st4" d="M298.02,779.61"/>
<path class="st2" d="M298.8,731.26c-12.41-8.48-24.81-16.96-37.22-25.44"/>
<path class="st1" d="M335.87,953.24"/>
<path class="st13" d="M502.46,250.85c-2.72,0.17-5.44,0.35-8.16,0.52c-0.5,0.03-1.02,0.06-1.49-0.17c-0.51-0.25-0.88-0.78-1.14-1.34
	c-0.92-2.01-0.57-4.43,0.02-6.56c1.38-5,3.99-9.53,7.45-12.94"/>
<path d="M526.88,292.13c-0.36,0.71-1,1.92-1.88,3.37c-0.52,0.86-1.14,1.89-2.04,3.11c-1.14,1.56-2.16,2.69-2.5,3.04
	c-2.72,2.87-6.95,4.26-8.18,4.66c-6.28,2.06-14,1-18.16,0.15c0,0.01,0.01,0.02,0.01,0.03c13.15,3.26,20.72,1.18,25.3-2.34
	c6.77-5.2,9.37-15.28,10.1-18.12C529.13,287.24,528.15,289.65,526.88,292.13z"/>
<circle class="st14" cx="444.89" cy="193.6" r="1.32"/>
<circle class="st14" cx="537.68" cy="184.38" r="1.32"/>
<ellipse class="st15" cx="444.63" cy="193.77" rx="0.62" ry="1.14"/>
<path class="st16" d="M506.52,338.21c0.38,0.24,1.04,0.65,1.9,1.11c0.5,0.27,1.11,0.59,1.9,0.93c1.01,0.43,1.84,0.69,2.1,0.77
	c2.16,0.62,4.64,0.07,5.36-0.09c3.67-0.81,7.15-3.57,8.94-5.19c0,0.01,0,0.01,0,0.02c-5.5,5.4-9.8,6.58-13.07,6.19
	c-4.82-0.58-9.02-4.77-10.2-5.94C504.01,336.47,505.18,337.36,506.52,338.21z"/>
<path class="st2" d="M554.94,384.02"/>
<path class="st0" d="M526.93,450.91"/>
<path class="st16" d="M559.78,313.57"/>
<path class="st0" d="M534.19,215.99"/>
<path class="st1" d="M620.57,373.75"/>
<path class="st0" d="M592.51,280.83"/>
<path class="st6" d="M510.99,141.8"/>
<path class="st6" d="M582.81,153.52"/>
<path class="st6" d="M607.67,189.89"/>
<path class="st6" d="M582.46,162.33"/>
<path class="st0" d="M551.1,437.56"/>
<path class="st0" d="M534.31,317.9"/>
<path class="st6" d="M1081.84,424.84"/>
</svg>
