<?xml version="1.0" encoding="utf-8"?>
<!-- Generator: Adobe Illustrator 27.0.0, SVG Export Plug-In . SVG Version: 6.00 Build 0)  -->
<svg version="1.1" id="Layer_2" xmlns="http://www.w3.org/2000/svg" xmlns:xlink="http://www.w3.org/1999/xlink" x="0px" y="0px"
	 viewBox="0 0 1656.46 1420.01" style="enable-background:new 0 0 1656.46 1420.01;" xml:space="preserve">
<style type="text/css">
	.st0{fill:#EAE9E8;}
	.st1{fill:#2F2F42;}
	.st2{fill:#AA927D;}
	.st3{fill:#FFD2B3;}
	.st4{fill:#FCCDAC;}
	.st5{fill:none;}
	.st6{fill:#FAF0BE;}
	.st7{fill:#FFE3C6;}
	.st8{fill:#F9E9A7;}
	.st9{fill:#F4F4F4;}
	.st10{fill:#5587A5;}
	.st11{stroke:#000000;stroke-miterlimit:10;}
	.st12{fill:none;stroke:#000000;stroke-miterlimit:10;}
	.st13{fill:#D3AF97;}
	.st14{fill:#FFFFFF;}
	.st15{fill:#B9B9B9;}
	.st16{fill:#FFFFFF;stroke:#000000;stroke-miterlimit:10;}
</style>
<path class="st0" d="M1479.1,1089.32c-0.02-0.01-0.04-0.02-0.06-0.04c-0.43,0.81-2.61,5.02-3.77,9.48
	c-2.67,10.28,0.58,21.77,1.26,24.08c-0.3-2.17-0.52-4.4-0.65-6.67C1475.33,1106.18,1476.73,1097.19,1479.1,1089.32z"/>
<path class="st0" d="M1470.26,1071.54c-0.02-0.02-0.05-0.03-0.07-0.05c-0.51,1.27-3.09,7.85-4.46,14.74
	c-3.17,15.88,0.63,33.14,1.43,36.61c-0.35-3.29-0.6-6.66-0.74-10.12C1465.79,1097.53,1467.47,1083.72,1470.26,1071.54z"/>
<path class="st0" d="M1474.5,1063.34c0.72-1.23,1.44-2.47,2.16-3.7"/>
<path class="st0" d="M1432.3,1065.52"/>
<path class="st0" d="M1435.98,1030.76"/>
<path class="st0" d="M1435.31,1025.4"/>
<path class="st1" d="M795.98,251.18"/>
<path class="st1" d="M791.08,232.31"/>
<path class="st1" d="M1516.66,1236.63"/>
<path class="st1" d="M1516.72,1236.65c-0.01-0.01-0.02-0.01-0.02-0.02"/>
<path class="st2" d="M1336.1,1242.6"/>
<path class="st3" d="M694.62,508.66"/>
<path class="st2" d="M893.05,549.86"/>
<path class="st4" d="M890.31,524.71"/>
<path class="st4" d="M924.78,477.41"/>
<path class="st3" d="M648.11,483.59"/>
<path class="st4" d="M824.58,489.25"/>
<path class="st4" d="M914.69,472.43c-25.89-12.02-51.78-24.04-77.67-36.06"/>
<path class="st3" d="M2851.68,1219.83"/>
<path class="st2" d="M1248.69,838.99"/>
<path class="st3" d="M694.05,506.05c-5.21-3.68-10.42-7.36-15.62-11.04"/>
<path class="st3" d="M693.97,506.06"/>
<path class="st3" d="M694.46,511.33"/>
<path class="st2" d="M719.83,530.36"/>
<path class="st3" d="M693.84,497.1"/>
<polyline class="st3" points="693.84,497.1 693.84,497.1 693.84,497.1 693.84,497.1 "/>
<path class="st3" d="M787.59,452.73c-43.59,6.23-95.46-39-99.73-31.31c-0.62,1.11,0.07,2.06,2.48,9.42
	c4.08,12.49,7.05,21.58,7.71,31.31c0.63,9.23-0.85,18.45-2.11,26.22c0,0-1.38,8.57-1.43,12.76c0,0.24-0.01,0.45-0.02,0.65
	c0,0-0.03,0.92-0.1,1.41c0,0.02-0.02,0.14-0.04,0.31c-0.02,0.15-0.03,0.23-0.03,0.26c-0.04,0.28-0.12,0.52-0.14,0.6
	c-0.15,0.61-0.02,0.84-0.1,1.48c-0.06,0.46-0.17,0.7-0.28,1.03c-0.34,1.07-0.19,1.92-0.19,2.62c-0.01,1.81-1.07,2.26-1.51,4.02
	c-0.27,1.07,0.04,1.23,0.73,4.86c0.9,4.78,0.76,6.61,0.54,7.87c-0.1,0.56-0.21,0.97-0.4,1.71c-0.35,1.3-0.86,2.86-1.79,5.12
	c-1.8,4.37-3.65,6.7-5.17,11.21c-8.49,25.19,13.57,57.75,28.09,73.14c7.07,7.49,20.22,21.43,41.45,26.82
	c11.37,2.89,21.88,2.51,32.03,0.25V452.73z"/>
<path class="st2" d="M695.38,513.27c-0.45,0.68-0.91,1.36-1.36,2.04"/>
<path class="st2" d="M642.49,577.02"/>
<path class="st2" d="M1160.12,800.25"/>
<path class="st3" d="M1349.14,1137.61"/>
<path class="st3" d="M3198.97,1201.02"/>
<path class="st3" d="M289.19,1199.62"/>
<path class="st3" d="M356.86,972.52"/>
<path class="st3" d="M2909.4,1274.83"/>
<path class="st3" d="M383.63,849.82c-3.62,1.37-7.44,4.58-19.53,58.33c-7.41,32.94-6.83,35.24-13.97,65.56
	c-1.46,6.2-3.67,15.41-6.08,28.3c-3.47,18.56-4.66,30.16-5.09,35.72c-0.56,7.27-0.51,12.2-1.05,19.53
	c-6.29,84.95,36.11,117.32,55.69,217.28c1.83,9.32,7.46,39.69,30.25,56.79c9,6.75,16.92,8.63,20.16,9.24
	c12.06,2.26,31.95,0.73,39.6-9.77c14.62-20.07-27.49-54.93-38.28-129.22c-11.08-76.33,24.94-89.32,17.97-191.13
	c-1.27-18.5-6.25-73.55-38.28-123.83C419.97,878.66,398.11,844.33,383.63,849.82z"/>
<path class="st4" d="M1237.83,832.12c8.84,1.67,14.55,20.21,25.62,57.21c7.23,24.16,11.07,42.28,11.96,46.53
	c3.7,17.63,5.93,32.75,8.09,47.34c3.17,21.45,2.54,21.57,5.04,35.36c4.09,22.57,6.13,33.85,6.78,35.97
	c1.31,4.26,3.24,9.9,2.73,17.57c-0.54,8.05-3.48,13.85-4.33,15.59c-7,14.41-46.14,112.97-62.5,176.92
	c-2.58,10.08-8.2,33.43-27.54,47.91c-9.2,6.89-17.41,8.72-20.16,9.24c-12.06,2.26-31.95,0.73-39.6-9.77
	c-14.62-20.07,27.49-54.93,38.28-129.22c11.08-76.33-24.94-89.32-17.97-191.13c1.96-28.59,9.34-76.63,38.28-123.83
	C1212.42,851.63,1225.77,829.84,1237.83,832.12z"/>
<path class="st4" d="M889.65,502.62"/>
<path class="st4" d="M781.12,473.77c85.91-43.56,109.06-48.23,112.56-42.91c2.35,3.58-4.54,11.19-8.36,34.51
	c-0.66,4.04-1.71,10.57-1.8,18.64c-0.11,8.82,0.9,21.16,5.87,35.63c-0.09,0.82-0.21,2.1-0.33,3.66c-0.73,9.8-0.12,18.32,1.14,22.41
	c0.99,3.21,2.43,6.46,2.43,6.46c0,0.01,0.01,0.01,0.01,0.01c2.12,4.42,4.3,6.69,6.09,11.18c9.83,24.65-15.71,56.5-32.53,71.56
	c-8.19,7.33-23.42,20.97-47.99,26.24c-13.16,2.82-25.34,2.45-37.09,0.25V473.77z"/>
<path class="st2" d="M1104.25,605.28"/>
<path class="st2" d="M1264.96,876.05c1.22-10.85-12.4-16.22-38.65-76.33c-12.1-27.71-14.06-37.68-27.46-61.73
	c-0.98-1.75-4.12-5.63-6.9-11.7c-2.99-6.52-3.37-10.2-5.69-17.42c-2.12-6.61-4.21-11.06-7.39-17.82c-4.23-9-8.12-15.24-15.65-26.95
	c-13.28-20.64-19.92-30.96-21.74-33.04c0,0-11.63-13.29-31.82-27.35c-0.96-0.67-2.27-1.63-4.07-2.57
	c-5.29-2.74-11.5-3.29-50.03-18.42c0,0-16.86-6.54-33.04-10.3c-15.08-3.51-15.07-1.88-24.35-4.85c-12.36-3.96-12.48-6.88-30.96-15.3
	c-10.04-4.57-17.66-7.99-28.41-10.25c-10.17-2.14-12.48-1.01-16.08-1.52c-1.49-0.37-3.01-0.8-4.55-1.31
	c-13.01-4.32-22.43-12.38-28.8-19.55c-0.05,0.39-0.13,0.98-0.23,1.7c-1.4,9.8-6.53,45.72-35.39,71.13
	c-5.93,5.22-29.05,24.8-62.82,24.54c-31.3-0.24-52.87-17.88-63.46-26.48c-6.1-4.95-14.02-11.56-21.01-22.65
	c-15.18-24.09-13.39-49.52-12.08-59.7c-11.02,14.18-22.05,28.37-33.07,42.55c-10.48,7.89-19.26,11.21-25.57,12.75
	c-4.94,1.21-14.89,3.27-14.89,3.27c-4.14,0.58-7.82,0.68-15.17,1.17c-14.27,0.95-14.11-0.73-25.17,0.35
	c-5.29,0.52-12.02,1.21-19.8,3.51c-8.14,2.41-13.39,5.39-24.5,11.93c-21.81,12.84-32.72,19.25-36.92,22.46
	c-11.72,8.93-19.76,17.2-25.51,23.16c-7.44,7.71-3.74,4.83-22.49,26.32c-7.82,8.97-11.48,12.92-15.1,20.35
	c-2,4.09-1.93,5.02-6.04,15.79c-3.42,8.96-3.67,8.83-8.73,21.4c-2.28,5.65-5.32,13.48-11.41,29.12c-4.11,10.56-4.6,11.87-6.04,14.74
	c-5.29,10.51-7.49,10.36-10.74,18.25c-3.11,7.56-3.95,14.67-4.7,21.05c-0.73,6.17-0.4,7.91-0.67,10.63
	c-0.11,1.12-0.27,1.99-0.34,2.35c-0.71,3.82-2.79,6.8-3.19,7.42c-5.14,7.75-9.1,36.45-9.53,39.64c-0.3,2.23-0.72,5.94-1.66,11.4
	c-1.13,6.63-2.07,10.31-2.08,11.49C370.9,896.75,1255.26,962,1264.96,876.05z"/>
<path class="st2" d="M1264.34,911.01c-95.1,54.28-190.21,108.56-285.31,162.84"/>
<path class="st1" d="M1161.31,1200.96v98.14V1200.96z"/>
<path class="st1" d="M1248.39,1361.97H375.58V845.62c290.89-0.84,581.78-1.7,872.67-2.54
	C1248.3,1016.03,1248.34,1189,1248.39,1361.97z"/>
<path class="st5" d="M938.2,1051.43"/>
<path class="st2" d="M755.82,571.92"/>
<path class="st2" d="M1152.47,540.58"/>
<path class="st2" d="M893.35,628.83c25.66,25.04,51.32,50.07,76.99,75.11"/>
<path class="st2" d="M699.4,541.09"/>
<path class="st3" d="M836.43,589.4"/>
<path class="st3" d="M799.65,505.06"/>
<path class="st3" d="M844.88,906.21"/>
<path class="st6" d="M936.6,295.22c3.72-13.06,7.44-26.13,11.16-39.2"/>
<path class="st6" d="M879.31,351.17c27.94-18.9,55.88-37.8,83.82-56.69"/>
<path class="st1" d="M792.74,244.72c0.5,2.55,1,5.09,1.5,7.64"/>
<path class="st1" d="M793.31,242.63"/>
<path class="st7" d="M878.09,491.51"/>
<path class="st3" d="M606,268.91c0.34-11.92,3.41-20.69,5.8-26c3.01-6.7,5.31-11.62,10.26-13.25c8.87-2.91,18.43,7.34,18.89,7.85
	c1.34-0.57,3.34-1.12,5.32-0.45c0,0,2.48,1,6.25,10.88c0,0,5.27-13.93,2.49-15.69c-1.39-0.88-4.01,1.78-5.1,0.85
	c-1.21-1.03,0.86-5.29,1.07-5.73c2.93-6.07,1.91-10.33,5.73-30.45c1.67-8.79,4.78-23.34,11.11-48.37
	c9.54-13.62,19.09-27.24,28.63-40.85c1.42-3.86,6.01-14.76,17.72-22.43c14.96-9.79,30.55-7.13,33.88-6.48
	c8.94,2.43,19.4,4.62,31.19,5.92c7.97,0.88,15.48,1.23,22.44,1.23c0,140.22,0,280.44,0,420.66c-4.14,1.17-10.66,2.46-18.63,1.74
	c-6.28-0.56-11.36-2.19-14.9-3.63c-7.58-3.56-16.08-8.11-25-13.95c-8.52-5.57-15.8-11.24-21.91-16.52
	c-6.89-5.71-14.68-13.02-22.47-22.21c-6.87-8.09-12.28-15.93-16.52-22.88c-4.38-8.86-8.87-19.71-12.41-32.44
	c-2.31-8.29-3.84-16.04-4.86-23.04c-0.45-4.09-1.62-14.38-3.29-25.39c-0.34-2.24-0.94-5.89-3.65-7.31
	c-1.78-0.93-3.79-0.55-5.03-0.17c-2.57,1.06-6.37,2.3-11.1,2.72c-4.52,0.4-8.31-0.08-10.97-0.63c-2.66-1.72-5.33-3.45-7.99-5.17
	c-3.53-4.2-8.11-10.66-11.46-19.43c-2.25-5.87-3.35-11.23-3.9-15.52c-0.88-6.14-1.53-12.97-1.72-20.37
	C605.71,277.64,605.79,273.14,606,268.91z"/>
<path class="st4" d="M975.94,272.82c-0.34-11.92-3.41-20.69-5.8-26c-3.01-6.7-5.31-11.62-10.26-13.25
	c-8.87-2.91-18.43,7.34-18.89,7.85c-1.34-0.57-3.34-1.12-5.32-0.45c-4.72,1.6-5.94,9-6.25,10.88c-1.03,6.26,1.02,9.61-0.8,10.85
	c-1.7,1.16-5.49-0.39-7.28-2.91c-1.36-1.91-1.02-3.62-1.27-10.55c-0.1-2.82-0.26-5.11-0.36-6.55c-0.49-11.26-1.91-24.43-5.14-38.88
	c-5-22.34-12.7-40.53-19.74-54.08c-3.11-12.71-6.22-25.41-9.33-38.12c-1.42-3.86-6.01-14.76-17.72-22.43
	c-14.96-9.79-30.55-7.13-33.88-6.48c-8.94,2.43-19.4,4.62-31.19,5.92c-7.97,0.88-15.48,1.23-22.44,1.23c0,140.63,0,281.25,0,421.88
	c4.6,0.81,11.04,1.43,18.63,0.52c6.04-0.72,11.08-2.2,14.9-3.63c7.58-3.56,16.08-8.11,25-13.95c8.52-5.57,15.8-11.24,21.91-16.52
	c6.89-5.71,14.68-13.02,22.47-22.21c6.87-8.09,12.28-15.93,16.52-22.88c4.38-8.86,8.87-19.71,12.41-32.44
	c2.31-8.29,3.84-16.04,4.86-23.04c0.45-4.09,1.62-14.38,3.29-25.39c0.34-2.24,0.94-5.89,3.65-7.31c1.78-0.93,3.79-0.55,5.03-0.17
	c2.57,1.06,6.37,2.3,11.1,2.72c4.52,0.4,8.31-0.08,10.97-0.63c2.66-1.72,5.33-3.45,7.99-5.17c3.53-4.2,8.11-10.66,11.46-19.43
	c2.25-5.87,3.35-11.23,3.9-15.52c0.88-6.14,1.53-12.97,1.72-20.37C976.23,281.56,976.15,277.05,975.94,272.82z"/>
<g>
	<path class="st1" d="M936.39,239.86c-1.74-0.52-3.4-1.1-5.53-2.55c-2.6-1.78-4.33-3.81-5.39-5.25c0,0-22.62-5.97-46.79-8.11
		c-7.45-0.66-16.5-1.43-28.49-0.67c-14.56,0.92-25.6,1.55-37.52,5.76c-2.38,0.84-6.88,2.56-13.16,2.85
		c-0.81,0.04-1.63,0.04-1.63,0.04c-1.43,0-2.64-0.07-3.53-0.14c-0.38,0-0.76,0-1.16,0.01c-0.29,0.01-0.57,0.01-0.85,0.02
		c-0.01,4.75-0.04,9.5-0.08,14.25c0.4,0.08,0.81,0.19,1.23,0.34c1.78,0.66,3.18,1.87,4.32,3.36c4.61,6.03,10.62,24.01,12.16,28.25
		c1.61,4.42,6.76,18.57,19.51,26.85c7.02,4.56,13.72,5.64,21.16,6.84c15,2.42,26.64-0.37,30.5-1.41c8.16-2.2,13.91-3.75,19.27-8.88
		c9.27-8.87,11.4-22.72,11.81-25.43c0.18-1.17,1.07-7.28,2.96-15.19c1.23-5.16,2.31-8.64,5.14-9.84c1.44-0.61,3-0.49,5.37,0.23
		c2.21,0.67,4.21,1.61,6.05,2.69c-0.04-0.27-0.09-0.54-0.1-0.83C931.55,247.98,932.9,243.49,936.39,239.86z"/>
	<path class="st1" d="M790.15,231.79c-1.03,0.04-1.61,0.07-1.61,0.07c-0.45,0.02-1.07,0.05-1.52,0.07h0c-0.02,0-1.02,0.01-2.01-0.03
		c-6.28-0.29-10.78-2.01-13.16-2.85c-11.92-4.21-22.96-4.83-37.52-5.76c-11.99-0.76-21.04,0-28.49,0.67
		c-24.17,2.14-46.78,8.11-46.78,8.11c-1.06,1.43-2.79,3.46-5.39,5.25c-4.34,2.98-6.76,2.3-11.89,4.9c3.68,5.07,4.47,10.92,3.92,17
		c3.41-3.14,7.69-6.36,13.14-8.01c2.37-0.72,3.92-0.84,5.37-0.23c2.84,1.2,3.91,4.68,5.14,9.84c1.89,7.91,2.78,14.02,2.96,15.19
		c0.42,2.71,2.54,16.56,11.81,25.43c5.36,5.13,11.11,6.68,19.27,8.88c3.86,1.04,15.5,3.83,30.5,1.41c7.44-1.2,14.14-2.28,21.16-6.84
		c12.75-8.28,17.9-22.43,19.51-26.85c1.55-4.24,7.55-22.22,12.16-28.25c1.14-1.49,2.53-2.7,4.32-3.36c0.42-0.15,0.82-0.26,1.23-0.34
		c0.16-2.29,0.27-4.72,0.28-7.29c0.01-2.45-0.05-4.77-0.18-6.96c-0.23-0.02-0.56-0.04-0.96-0.05
		C791.05,231.76,790.8,231.77,790.15,231.79z"/>
	<path class="st6" d="M803.99,314.98"/>
</g>
<path class="st3" d="M763.42,238.39c-3.45-2.06-7.46-3.74-14.44-5.26c-2.72-0.59-10.14-2.09-21.77-2.3
	c-11.23-0.21-19.39,0.91-23.03,1.48c-10.35,1.63-15.6,2.52-19.42,6.54c-3.61,3.8-4.55,8.41-5.62,13.63
	c-1.46,7.15-0.74,12.84-0.08,17.68c1.09,8.02,1.84,13.48,5.71,19.28c5.12,7.65,12.36,10.9,15.57,12.28
	c9.11,3.94,17.08,3.25,24.94,2.57c8.64-0.75,16.8-1.45,25.03-7.07c8.11-5.54,11.95-12.89,14.85-18.43
	c3.13-5.98,4.23-10.53,6.25-18.92c2.03-8.43,1.71-11.06,0.77-13.27C770.5,242.62,767.05,240.56,763.42,238.39z"/>
<path class="st3" d="M821.97,238.39c3.45-2.06,7.46-3.74,14.44-5.26c2.72-0.59,10.14-2.09,21.77-2.3
	c11.23-0.21,19.39,0.91,23.03,1.48c10.35,1.63,15.6,2.52,19.42,6.54c3.61,3.8,4.55,8.41,5.62,13.63c1.46,7.15,0.74,12.84,0.08,17.68
	c-1.09,8.02-1.84,13.48-5.71,19.28c-5.12,7.65-12.36,10.9-15.57,12.28c-9.11,3.94-17.08,3.25-24.94,2.57
	c-8.64-0.75-16.8-1.45-25.03-7.07c-8.11-5.54-11.95-12.89-14.85-18.43c-3.13-5.98-4.23-10.53-6.25-18.92
	c-2.03-8.43-1.71-11.06-0.77-13.27C814.89,242.62,818.35,240.56,821.97,238.39z"/>
<path class="st5" d="M808.95,1260.27c-183.44-113.17-366.87-226.34-550.31-339.51"/>
<path class="st8" d="M771.05,38.17c6.33-0.12,19.52,0.02,35.74,3.41c3.14,0.66,5.46,1.3,6.87,1.68c0,0,2.04,0.54,4.06,1.14
	c13.4,3.93,38.74,15.96,38.74,15.96c24.94,11.84,23.49,6.35,37.15,14.9c8.66,5.42,15.93,11.79,28.17,22.5
	c8.98,7.87,13.48,11.8,15.36,14.12c10.64,13.08,11.67,27.46,13.09,51.7c1.16,20.01-1.11,18.19,0,40.52
	c0.81,16.26,3.82,27.44,0,32.42c-1.85,2.41-4.31,3.64-4.31,3.64c-1.94,0.97-3.76,1.21-4.92,1.26c-0.81,0.25-1.94,0.7-3.04,1.6
	c-2.97,2.43-3.33,6.21-3.85,9.2c-0.28,1.57-2.63,14.92-6.86,15.59c-3.06,0.49-7.07-5.66-7.08-8.78c0-0.41-0.28-3.52-0.44-4.12
	c-0.25-0.97,0.03-1.79,0.15-2.23c0.4-1.53-0.11-2.73-0.45-4.32c-1.14-5.39-2.82-27.54-4.68-36.64l0,0c0,0-1.83-8.51-1.89-8.5
	c-0.02,0,0.79,4.2,0.73,4.21c-0.05,0.01-0.27-2.66-1.88-5.47c-1-1.73-2.18-2.76-2.4-3.1c-3.3-4.93-5.32-11.73-12.91-34.44
	c-6.14-18.38-7.54-22.25-12.27-26.83c-1.68-1.62-9.11-8.49-20.69-10.71c-6.58-1.27-16.74,0.6-37.14,3.84
	c-17.49,2.77-18.22,3.81-24.6,3.84c-13.81,0.06-17.44-5.04-33.42-9.38c-4-1.09-24.66-6.46-49.2-2.56
	c-11.57,1.84-22.44,3.56-32.49,11.52c-14.07,11.13-17.26,27.14-18.57,33.7c-0.88,4.4-0.89,13.03-0.93,30.29
	c-0.02,10.67-2.05,22.32-6.96,29.86c-0.53,0.82-2.03,3.01-3.62,6.29c-1.92,3.98-3.09,7.75-3.95,11.52
	c-2.73,11.99-1.03,18.65-2.64,18.98c-2.37,0.49-7.64-10.73-11.11-21.5c-1.55-4.81-6.49-21.18-6.05-46.81
	c0.2-11.72,1.45-20.49,3.28-33.42c1.27-8.93,2.49-17.59,5.24-28.75c3.92-15.9,6.15-24.97,12.45-35.98
	c2.67-4.66,10.78-17.92,26.7-30.26c13.05-10.11,25.07-14.74,35.86-18.79C743.72,38.95,766.39,38.26,771.05,38.17z"/>
<path class="st9" d="M763.16,265.77c-1.56-6.45-7.81-12-7.81-12c-2.69-2.39-8.23-7.18-17.2-9.62c-2.81-0.77-10.46-2.75-19.69-0.45
	c-7.54,1.87-12.68,5.74-17.09,9.05c-2.92,2.19-4.8,4.03-6.22,5.43c-4.74,4.66-7.11,6.99-7.24,9.39c-0.31,5.5,8.31,10.07,12.79,12.45
	c1.25,0.66,6.95,3.61,15.28,4.87c8.23,1.24,16.21,0.4,21.06-1.21c1.3-0.43,5.07-1.84,9.5-3.79c0.55-0.24,1.09-0.49,1.69-0.77
	c1.77-0.83,4.5-2.52,9.96-5.89c2.21-1.36,4.71-2.96,5.09-5.55C763.4,266.87,763.26,266.19,763.16,265.77z"/>
<circle class="st10" cx="729.85" cy="270.4" r="12.46"/>
<circle class="st11" cx="729.85" cy="274.68" r="2.96"/>
<path class="st9" d="M826.77,265.77c1.56-6.45,7.81-12,7.81-12c2.69-2.39,8.23-7.18,17.2-9.62c2.81-0.77,10.46-2.75,19.69-0.45
	c7.54,1.87,12.68,5.74,17.09,9.05c2.92,2.19,4.8,4.03,6.22,5.43c4.74,4.66,7.11,6.99,7.24,9.39c0.31,5.5-8.31,10.07-12.79,12.45
	c-1.25,0.66-6.95,3.61-15.28,4.87c-8.23,1.24-16.21,0.4-21.07-1.21c-1.3-0.43-5.07-1.84-9.5-3.79c-0.55-0.24-1.09-0.49-1.69-0.77
	c-1.77-0.83-4.5-2.52-9.96-5.89c-2.21-1.36-4.72-2.96-5.09-5.55C826.54,266.87,826.67,266.19,826.77,265.77z"/>
<path class="st12" d="M788.09,347.09c2.94,0.18,5.88,0.35,8.82,0.53c0.54,0.03,1.11,0.06,1.62-0.3c0.56-0.39,0.98-1.19,1.27-2.03
	c1.05-3.02,0.75-6.61,0.17-9.76c-1.35-7.4-4.03-14.07-7.68-19.05"/>
<path class="st13" d="M785.94,481.75c0.38,0.22,1.03,0.6,1.87,1.02c0.5,0.25,1.09,0.54,1.88,0.85c1,0.39,1.82,0.62,2.08,0.68
	c2.15,0.54,4.65-0.07,5.37-0.24c3.71-0.89,7.26-3.67,9.11-5.29c0,0.01,0,0.01,0,0.02c-5.67,5.4-10.02,6.67-13.28,6.38
	c-4.81-0.43-8.9-4.36-10.05-5.47C783.47,480.14,784.62,480.97,785.94,481.75z"/>
<path d="M773.83,426.41c0.91,0.58,2.49,1.55,4.52,2.64c1.2,0.65,2.64,1.41,4.53,2.23c2.4,1.03,4.38,1.64,5.01,1.82
	c5.16,1.48,11.06,0.17,12.77-0.21c8.75-1.93,17.03-8.5,21.3-12.36c0,0.01,0,0.03,0.01,0.04c-13.1,12.88-23.36,15.69-31.15,14.75
	c-11.49-1.39-21.49-11.36-24.3-14.17C767.83,422.26,770.63,424.39,773.83,426.41z"/>
<ellipse class="st14" cx="818.01" cy="1102.83" rx="33.68" ry="31.2"/>
<path class="st2" d="M713.24,507.66"/>
<path class="st2" d="M1506.01,1299.1h-73.31c-6.43-21.51-13.19-53.18-11.96-91.66c0.95-29.79,6.39-54.79,11.96-73.4
	c24.44,0,48.87,0,73.31,0c5.39,19.26,10.52,44.84,11.25,75.16C1518.15,1246.43,1512.08,1277.36,1506.01,1299.1z"/>
<rect x="35.7" y="1299.1" class="st15" width="1584.88" height="82.77"/>
<path class="st1" d="M1516.69,1236.66c-31.8,0.02-63.6,0.04-95.4,0.06c-0.65-6.92-1.05-14.6-0.97-22.92
	c0.08-8.33,0.62-16,1.41-22.91c31.51,0.02,63.02,0.05,94.54,0.07c0.77,6.9,1.31,14.54,1.38,22.84
	C1517.73,1222.09,1517.34,1229.75,1516.69,1236.66z"/>
<circle class="st16" cx="729.85" cy="275.17" r="1.66"/>
<circle class="st10" cx="864.33" cy="270.4" r="12.46"/>
<circle class="st11" cx="864.33" cy="274.68" r="2.96"/>
<circle class="st16" cx="864.33" cy="275.53" r="1.66"/>
</svg>
